<svg id="e6HqObKMTUi1" xmlns="http://www.w3.org/2000/svg" xmlns:xlink="http://www.w3.org/1999/xlink" viewBox="0 0 589 589" shape-rendering="geometricPrecision" text-rendering="geometricPrecision"><path d="M485.285736,57.048782c4.953247,3.587162,9.951294,7.114334,14.85202,10.771904c20.691956,15.442994,31.721985,36.989365,38.442994,61.205559.478149,1.722672.393676,3.630676.393981,5.45253.017273,89.97049.083374,179.941116-.060058,269.911362-.020935,13.15451-5.70636,24.989105-12.029297,35.974457-14.202209,24.674621-35.02887,41.861968-63.229706,47.683441-12.336395,2.546569-25.437988,1.807312-38.193573,1.833038-76.303345.15387-152.607178.11969-228.910705.034027-3.594178-.004028-5.708939,1.239624-7.79097,4.084717-16.867981,23.049316-33.894181,45.98291-50.897553,68.932922-1.183532,1.597473-2.633529,2.995545-3.849533,4.571228-2.425125,3.142578-5.13562,2.857056-8.342537,1.185303-28.987983-15.111328-45.664489-39.599182-53.637222-70.601532-1.262123-4.907806-1.908943-10.107544-1.936615-15.177277-.170982-31.322113.048218-62.646331-.118736-93.968475-.164063-30.780273-.67466-61.558563-.916184-92.338653-.030792-3.923981.644631-7.853516.967415-12.612854c1.368317-6.883484,2.847878-12.91623,4.141197-18.988678c5.981552-28.084855,19.912789-51.736725,40.281128-71.678833c11.585396-11.342972,25.18747-19.995102,39.785202-26.823853c20.747559-9.705643,42.396179-15.834106,65.666687-15.74823c62.111283.229263,124.224015.060074,186.336045.129425c3.207824.003586,5.661102-.599426,7.769653-3.288055c13.700439-17.4693,27.55719-34.815873,41.30423-52.248764c10.03714-12.728295,19.984649-25.52726,29.972137-38.294709M388.578217,285.045166c-8.962647,23.741547,8.611114,51.42215,35.306243,53.066986c16.952332,1.044525,35.608674-10.091278,40.45102-31.45935c5.333343-23.534882-12.493683-48.083344-37.237976-48.348725-18.374695-.197143-30.967957,9.292389-38.519287,26.741089m-241.456864-.363953c-3.233749,12.003571-2.951889,23.583161,3.886276,34.480347c10.658387,16.985046,28.700547,22.953461,46.233033,16.755951c29.303466-10.358337,35.761139-47.960327,12.579223-68.05365-20.318115-17.611053-51.591156-10.594543-62.698532,16.817352m130.588608,42.108338c2.524628,1.861938,4.946289,3.886505,7.59021,5.559967c19.739777,12.494171,45.61206,4.281494,55.19989-16.831055c10.241058-22.550873.479248-45.860504-22.503906-54.837677-19.657471-7.678161-40.920838,1.831421-49.083649,22.130951-6.277893,15.612-3.487305,30.704559,8.797455,43.977814m259.365845,82.756347c.223083.282959.446106.565949.669128.848877.123779-.266418.420715-.66455.337708-.773712-.219727-.28891-.603882-.452789-1.006836-.075165Z" fill="#010101"/><path d="M485.285736,57.044405c-9.868714,13.1409-19.934997,25.570791-29.972137,38.299086-13.74704,17.432891-27.603791,34.779464-41.30423,52.248764-2.108551,2.688629-4.561829,3.291641-7.769653,3.288055-62.11203-.069351-124.224762.099838-186.336045-.129425-23.270508-.085876-44.919128,6.042587-65.666687,15.74823-14.597732,6.828751-28.199806,15.480881-39.785202,26.823853-20.368339,19.942108-34.299576,43.593978-40.281128,71.678833-1.293319,6.072448-2.654869,12.531952-4.11573,18.988678-.343056-1.503815-.975769-3.839753-.977898-5.749543-.046157-41.332199.157074-82.665695-.106514-123.996261-.160629-25.185105,6.351136-48.204285,21.296441-68.456467c10.232925-13.866478,23.31636-24.200558,39.408065-31.293938c14.322327-6.313419,28.909226-8.464019,44.249848-8.501926c98.881225-.244354,197.762085-.636433,296.64328-.903935c5.633769.149106,11.313527-.019147,16.767578,0c1.843874-.000548,7.029689.006883,6.310057,0-1.609436,3.201077-7.006041,8.653296-8.360045,11.955996Z" fill="#29b3f9"/><path d="M388.721039,284.684998c7.408508-17.088532,20.00177-26.578064,38.376465-26.380921c24.744293.265381,42.571319,24.813843,37.237976,48.348725-4.842346,21.368072-23.498688,32.503875-40.45102,31.45935-26.695129-1.644836-44.26889-29.325439-35.163421-53.427154Z" fill="#fafafa"/><path d="M147.284149,284.32547c10.94458-27.056152,42.217621-34.072662,62.535736-16.461609c23.181916,20.093323,16.724243,57.695313-12.579223,68.05365-17.532486,6.19751-35.574646.229095-46.233033-16.755951-6.838165-10.897186-7.120025-22.476776-3.72348-34.83609Z" fill="#fafafa"/><path d="M277.460327,326.539398c-12.035126-13.023102-14.825714-28.115661-8.547821-43.727661c8.162811-20.29953,29.426178-29.809112,49.083649-22.130951c22.983154,8.977173,32.744964,32.286804,22.503906,54.837677-9.58783,21.112549-35.460113,29.325226-55.19989,16.831055-2.643921-1.673462-5.065582-3.698029-7.839844-5.81012Z" fill="#fafafa"/><path d="M537.11792,409.250305c.36084-.082031.744995.081848.964722.370758.083007.109162-.213929.507294-.337647.773712-.223083-.282928-.446106-.565918-.627075-1.14447Z" fill="#4c6971"/></svg>
